<svg width="852" height="254" viewBox="0 0 852 254" fill="none" xmlns="http://www.w3.org/2000/svg">
<path d="M73.232 141H54.152L43.976 194H0.304L29.56 42.42H93.796C109.484 42.42 122.345 45.8827 132.38 52.808C142.556 59.7333 147.644 69.8387 147.644 83.124C147.644 94.148 145.1 102.911 140.012 109.412C135.065 115.913 127.433 120.931 117.116 124.464V125.1C128.564 129.905 134.288 140.223 134.288 156.052C134.288 157.183 134.217 160.928 134.076 167.288C133.935 173.507 133.935 178.171 134.076 181.28C134.076 186.651 135.065 190.113 137.044 191.668V194H92.948C91.8173 192.304 91.252 189.053 91.252 184.248C91.252 182.411 91.3227 178.807 91.464 173.436C91.7467 167.924 91.888 163.755 91.888 160.928C91.888 154.285 90.4747 149.339 87.648 146.088C84.9627 142.696 80.1573 141 73.232 141ZM66.66 76.764L60.3 109.836H83.62C89.556 109.836 94.432 108.281 98.248 105.172C102.064 102.063 103.972 97.4693 103.972 91.392C103.972 81.64 98.3187 76.764 87.012 76.764H66.66ZM259.115 149.692H184.491C184.773 163.26 190.921 170.044 202.935 170.044C210.708 170.044 215.867 167.288 218.411 161.776H256.571C253.037 173.083 246.324 181.775 236.431 187.852C226.537 193.929 215.372 196.968 202.935 196.968C186.399 196.968 172.901 192.587 162.443 183.824C152.125 175.061 146.967 162.836 146.967 147.148C146.967 128.633 152.761 113.228 164.351 100.932C175.94 88.4947 190.709 82.276 208.659 82.276C220.955 82.276 231.201 84.82 239.399 89.908C256.783 100.932 263.355 120.86 259.115 149.692ZM208.447 108.988C203.924 108.988 199.684 110.613 195.727 113.864C191.911 116.973 189.084 121.849 187.247 128.492H223.923C224.205 122.839 223.004 118.175 220.319 114.5C217.775 110.825 213.817 108.988 208.447 108.988ZM327.061 194C325.93 191.315 325.365 187.357 325.365 182.128H324.941C317.026 191.88 307.345 196.756 295.897 196.756C285.438 196.756 277.241 194 271.305 188.488C265.369 182.976 262.401 175.556 262.401 166.228C262.401 144.039 276.605 132.167 305.013 130.612C317.309 129.905 325.718 128.704 330.241 127.008C334.905 125.312 337.237 121.991 337.237 117.044C337.237 111.391 333.845 108.564 327.061 108.564C318.157 108.564 312.645 112.875 310.525 121.496H273.001C275.262 109.341 280.986 99.8013 290.173 92.876C299.359 85.9507 312.433 82.488 329.393 82.488C343.526 82.488 354.409 84.9613 362.041 89.908C373.771 97.6813 377.87 110.543 374.337 128.492L365.009 176.192C363.171 184.672 363.383 190.043 365.645 192.304L365.433 194H327.061ZM312.221 172.8C322.255 172.8 328.474 166.935 330.877 155.204L332.785 145.664C328.827 147.36 323.457 148.773 316.673 149.904C313.563 150.328 311.019 150.893 309.041 151.6C307.062 152.165 305.083 153.437 303.105 155.416C301.267 157.253 300.349 159.727 300.349 162.836C300.349 169.479 304.306 172.8 312.221 172.8ZM375.607 194L404.863 42.42H445.355L416.099 194H375.607ZM430.263 194L451.251 85.88H490.683L469.695 194H430.263ZM453.795 72.736L459.519 42.42H498.951L493.227 72.736H453.795ZM494.484 109.836L499.36 85.88H513.14L519.924 50.9H558.508L551.724 85.88H571.864L566.988 109.836H546.848L538.368 154.568C537.662 158.808 538.015 161.776 539.428 163.472C540.842 165.027 543.81 165.804 548.332 165.804C550.311 165.804 552.855 165.663 555.964 165.38L550.452 193.364C543.668 195.201 537.096 196.12 530.736 196.12C504.731 196.12 494.06 184.036 498.724 159.868L508.264 109.836H494.484ZM561.107 229.828L567.043 198.876H581.035C589.656 198.876 593.967 195.413 593.967 188.488C593.967 185.803 593.331 181.421 592.059 175.344L574.675 85.88H615.803L620.255 128.068L621.951 155.84H622.375C626.332 145.664 630.078 136.831 633.611 129.34L653.963 85.88H693.607L635.307 199.724C624.99 219.793 609.584 229.828 589.091 229.828H561.107Z" fill="white"/>
<path d="M669.704 194L736.908 113.016L703.2 42.42H751.96L769.132 83.76H769.556L800.932 42.42H851.176L790.756 115.984L826.584 194H776.128L757.684 146.512H757.26L721.432 194H669.704Z" fill="url(#paint0_linear_532_3)"/>
<defs>
<linearGradient id="paint0_linear_532_3" x1="682" y1="0" x2="882.972" y2="45.2146" gradientUnits="userSpaceOnUse">
<stop stop-color="#F254C6"/>
<stop offset="1" stop-color="#6954F2"/>
</linearGradient>
</defs>
</svg>
