<svg width="220" height="49" viewBox="0 0 220 49" fill="none" xmlns="http://www.w3.org/2000/svg">
<path d="M18.91 25.9519H13.9833L11.3557 39.5845H0.0788574L7.63322 0.59539H24.22C28.2709 0.59539 31.5918 1.48606 34.183 3.26737C36.8106 5.04868 38.1244 7.64797 38.1244 11.0652C38.1244 13.9008 37.4675 16.1548 36.1537 17.8269C34.8763 19.4991 32.9056 20.7898 30.2416 21.6986V21.8622C33.1976 23.0981 34.6757 25.7521 34.6757 29.8236C34.6757 30.1145 34.6573 31.0778 34.6209 32.7137C34.5845 34.3133 34.5845 35.513 34.6209 36.3127C34.6209 37.6942 34.8763 38.5847 35.3873 38.9846V39.5845H24.001C23.7091 39.1482 23.5631 38.312 23.5631 37.0761C23.5631 36.6036 23.5813 35.6766 23.6178 34.295C23.6908 32.8773 23.7273 31.8049 23.7273 31.0778C23.7273 29.3691 23.3624 28.0969 22.6325 27.2607C21.9391 26.3882 20.6983 25.9519 18.91 25.9519ZM17.213 9.42928L15.5708 17.936H21.5924C23.1252 17.936 24.3842 17.536 25.3696 16.7363C26.3549 15.9366 26.8476 14.7551 26.8476 13.1919C26.8476 10.6835 25.3878 9.42928 22.4683 9.42928H17.213ZM66.908 28.1877H47.6389C47.7117 31.6776 49.2992 33.4226 52.4014 33.4226C54.4085 33.4226 55.7407 32.7137 56.3976 31.2959H66.2511C65.3386 34.2042 63.6052 36.44 61.0506 38.0031C58.4958 39.5662 55.6129 40.3479 52.4014 40.3479C48.1316 40.3479 44.6462 39.221 41.9457 36.967C39.2815 34.713 37.9496 31.5685 37.9496 27.5333C37.9496 22.7709 39.4457 18.8085 42.4384 15.6457C45.4309 12.4466 49.2445 10.8471 53.8794 10.8471C57.0545 10.8471 59.7002 11.5014 61.817 12.8102C66.3058 15.6457 68.0028 20.7716 66.908 28.1877ZM53.8247 17.7179C52.6568 17.7179 51.562 18.1358 50.5402 18.9721C49.5549 19.7718 48.8249 21.0259 48.3505 22.7346H57.8209C57.8937 21.2806 57.5836 20.0809 56.8902 19.1357C56.2333 18.1904 55.2113 17.7179 53.8247 17.7179ZM84.4527 39.5845C84.1607 38.8938 84.0148 37.8758 84.0148 36.5308H83.9053C81.8615 39.0392 79.3618 40.2934 76.4057 40.2934C73.705 40.2934 71.5884 39.5845 70.0556 38.1667C68.5229 36.7489 67.7565 34.8403 67.7565 32.441C67.7565 26.7336 71.4242 23.6799 78.7596 23.2799C81.9346 23.0981 84.106 22.7892 85.2739 22.3529C86.4782 21.9167 87.0804 21.0625 87.0804 19.79C87.0804 18.336 86.2045 17.6088 84.4527 17.6088C82.1536 17.6088 80.7303 18.7177 80.1829 20.9352H70.4936C71.0774 17.8087 72.5554 15.3549 74.9277 13.5736C77.2996 11.7923 80.6756 10.9016 85.0549 10.9016C88.7043 10.9016 91.5144 11.5378 93.4851 12.8102C96.514 14.8096 97.5724 18.1178 96.6602 22.7346L94.2515 35.0039C93.7769 37.1851 93.8317 38.5667 94.4157 39.1482L94.361 39.5845H84.4527ZM80.6208 34.1315C83.2118 34.1315 84.8176 32.6229 85.4381 29.6054L85.9308 27.1516C84.9088 27.5878 83.5221 27.9513 81.7704 28.2422C80.9673 28.3513 80.3104 28.4966 79.7997 28.6784C79.2887 28.8238 78.7777 29.1509 78.2669 29.66C77.7923 30.1325 77.5553 30.7688 77.5553 31.5685C77.5553 33.2772 78.577 34.1315 80.6208 34.1315ZM96.9881 39.5845L104.542 0.59539H114.998L107.444 39.5845H96.9881ZM111.101 39.5845L116.521 11.7741H126.703L121.283 39.5845H111.101ZM117.177 8.39321L118.656 0.59539H128.837L127.359 8.39321H117.177ZM127.684 17.936L128.943 11.7741H132.501L134.253 2.7766H144.216L142.464 11.7741H147.665L146.406 17.936H141.205L139.016 29.4419C138.833 30.5325 138.924 31.2959 139.289 31.7321C139.654 32.1321 140.421 32.332 141.588 32.332C142.099 32.332 142.756 32.2957 143.559 32.2229L142.136 39.4209C140.384 39.8934 138.687 40.1298 137.045 40.1298C130.33 40.1298 127.575 37.0216 128.779 30.8051L131.242 17.936H127.684ZM144.887 48.8001L146.42 40.8387H150.033C152.259 40.8387 153.372 39.9479 153.372 38.1667C153.372 37.4761 153.208 36.3489 152.879 34.7858L148.391 11.7741H159.011L160.16 22.6256L160.598 29.769H160.708C161.729 27.1516 162.697 24.8796 163.609 22.9528L168.864 11.7741H179.101L164.047 41.0568C161.383 46.2189 157.405 48.8001 152.113 48.8001H144.887Z" fill="white"/>
<path d="M172.928 39.5845L190.281 18.7539L181.577 0.59539H194.168L198.602 11.2288H198.712L206.813 0.59539H219.787L204.186 19.5174L213.437 39.5845H200.409L195.646 27.3697H195.537L186.285 39.5845H172.928Z" fill="url(#paint0_linear_18_838)"/>
<defs>
<linearGradient id="paint0_linear_18_838" x1="176.103" y1="-10.3158" x2="227.978" y2="1.40025" gradientUnits="userSpaceOnUse">
<stop stop-color="#F254C6"/>
<stop offset="1" stop-color="#6954F2"/>
</linearGradient>
</defs>
</svg>
