<svg width="19" height="20" viewBox="0 0 19 20" fill="none" xmlns="http://www.w3.org/2000/svg">
<path d="M13.1501 12.0312L12.9168 12.3875C14.1053 10.9931 14.7158 9.18364 14.6195 7.34022C14.5233 5.49679 13.7279 3.76334 12.4009 2.505C11.0739 1.24666 9.31891 0.561673 7.50556 0.594332C5.6922 0.626991 3.96208 1.37475 2.67965 2.68008C1.39721 3.98542 0.662577 5.74643 0.630491 7.59216C0.598405 9.4379 1.27137 11.2243 2.50764 12.575C3.7439 13.9257 5.44695 14.7352 7.25803 14.8332C9.06911 14.9311 10.8468 14.3098 12.2168 13.1L11.5168 13.575L17.0001 18.9187C17.2121 19.0051 17.4444 19.0263 17.6681 18.9796C17.8918 18.9328 18.0971 18.8203 18.2586 18.656C18.4201 18.4916 18.5306 18.2826 18.5765 18.0549C18.6224 17.8272 18.6016 17.5908 18.5168 17.375L13.1501 12.0312ZM7.66675 12.625C6.38266 12.625 5.15117 12.1058 4.24318 11.1816C3.33519 10.2574 2.82509 9.00389 2.82509 7.69687C2.82509 6.38985 3.33519 5.13636 4.24318 4.21216C5.15117 3.28795 6.38266 2.76874 7.66675 2.76874C8.95084 2.76874 10.1823 3.28795 11.0903 4.21216C11.9983 5.13636 12.5084 6.38985 12.5084 7.69687C12.5084 9.00389 11.9983 10.2574 11.0903 11.1816C10.1823 12.1058 8.95084 12.625 7.66675 12.625Z" fill="white"/>
</svg>
