<svg width="87" height="15" viewBox="0 0 87 15" fill="none" xmlns="http://www.w3.org/2000/svg">
<path d="M1.98633 14H4.21875L5.29102 7.0918L5.3877 6.44141L5.48438 7.0918L6.60059 14H8.83301L10.6084 1.20312H8.34082L7.4707 8.375L7.40918 8.91113L7.33008 8.38379L6.25781 1.20312H4.49121L3.48047 8.33105L3.40137 8.8584L3.33984 8.35742L2.4873 1.20312H0.228516L1.98633 14ZM12.7002 4.49023V6.48535H15.4072V12.0137H12.7002V14H20.4521V12.0137H17.877V4.49023H12.7002ZM15.2314 2.05566C15.2314 2.24316 15.2637 2.41895 15.3281 2.58301C15.3984 2.74121 15.4951 2.87598 15.6182 2.9873C15.7412 3.10449 15.8877 3.19531 16.0576 3.25977C16.2334 3.32422 16.4268 3.35645 16.6377 3.35645C17.0713 3.35645 17.4141 3.23633 17.666 2.99609C17.9238 2.75 18.0527 2.43652 18.0527 2.05566C18.0527 1.6748 17.9238 1.36426 17.666 1.12402C17.4141 0.87793 17.0713 0.754883 16.6377 0.754883C16.4268 0.754883 16.2334 0.787109 16.0576 0.851562C15.8877 0.916016 15.7412 1.00391 15.6182 1.11523C15.4951 1.23242 15.3984 1.37305 15.3281 1.53711C15.2637 1.69531 15.2314 1.86816 15.2314 2.05566ZM23.3701 0.5V2.49512H26.2178V12.0137H23.3701V14H31.4121V12.0137H28.6875V0.5H23.3701ZM33.416 9.1748V9.35938C33.416 10.0508 33.501 10.6924 33.6709 11.2842C33.8408 11.8701 34.0869 12.377 34.4092 12.8047C34.7256 13.2324 35.1123 13.5693 35.5693 13.8154C36.0322 14.0557 36.5537 14.1758 37.1338 14.1758C37.667 14.1758 38.1357 14.0732 38.54 13.8682C38.9443 13.6631 39.2959 13.376 39.5947 13.0068L39.7178 14H41.9238V0.5H39.4717V5.34277C39.1787 5.01465 38.8418 4.7627 38.4609 4.58691C38.0859 4.40527 37.6494 4.31445 37.1514 4.31445C36.5596 4.31445 36.0322 4.43164 35.5693 4.66602C35.1123 4.90039 34.7227 5.23145 34.4004 5.65918C34.0781 6.08691 33.832 6.59961 33.6621 7.19727C33.498 7.79492 33.416 8.4541 33.416 9.1748ZM35.8594 9.35938V9.1748C35.8594 8.77637 35.8945 8.4043 35.9648 8.05859C36.0352 7.70703 36.1465 7.39941 36.2988 7.13574C36.4512 6.87793 36.6475 6.67578 36.8877 6.5293C37.1338 6.37695 37.4297 6.30078 37.7754 6.30078C38.1914 6.30078 38.5371 6.3916 38.8125 6.57324C39.0879 6.74902 39.3076 6.99805 39.4717 7.32031V11.1699C39.3076 11.4863 39.085 11.7354 38.8037 11.917C38.5283 12.0986 38.1797 12.1895 37.7578 12.1895C37.4121 12.1895 37.1191 12.1162 36.8789 11.9697C36.6387 11.8232 36.4424 11.6211 36.29 11.3633C36.1377 11.1113 36.0264 10.8154 35.9561 10.4756C35.8916 10.1299 35.8594 9.75781 35.8594 9.35938ZM46.9248 5.7998V0.5H44.4814V14H46.9248V7.13574C47.0186 7.0127 47.1211 6.90137 47.2324 6.80176C47.3496 6.70215 47.4785 6.61719 47.6191 6.54688C47.7715 6.46484 47.9414 6.40332 48.1289 6.3623C48.3164 6.32129 48.5186 6.30078 48.7354 6.30078C49.0166 6.30078 49.2686 6.33887 49.4912 6.41504C49.7139 6.48535 49.9043 6.59668 50.0625 6.74902C50.2207 6.90137 50.3408 7.10059 50.4229 7.34668C50.5107 7.59277 50.5547 7.88574 50.5547 8.22559V14H52.998V8.24316C52.998 7.5459 52.9131 6.95117 52.7432 6.45898C52.5791 5.96094 52.3477 5.55371 52.0488 5.2373C51.75 4.9209 51.3926 4.68945 50.9766 4.54297C50.5605 4.39062 50.1035 4.31445 49.6055 4.31445C49.2656 4.31445 48.9434 4.36426 48.6387 4.46387C48.334 4.56348 48.0557 4.7041 47.8037 4.88574C47.6396 5.00293 47.4814 5.14062 47.3291 5.29883C47.1826 5.45117 47.0479 5.61816 46.9248 5.7998ZM61.2334 14H63.7119V13.8506C63.5889 13.6104 63.4951 13.3232 63.4307 12.9893C63.3662 12.6553 63.334 12.2334 63.334 11.7236V7.64551C63.334 7.09473 63.2314 6.61133 63.0264 6.19531C62.8213 5.77344 62.5371 5.4248 62.1738 5.14941C61.8105 4.87402 61.3799 4.66602 60.8818 4.52539C60.3896 4.38477 59.8564 4.31445 59.2822 4.31445C58.6436 4.31445 58.0752 4.39648 57.5771 4.56055C57.085 4.71875 56.6689 4.93555 56.3291 5.21094C55.9834 5.48633 55.7197 5.80566 55.5381 6.16895C55.3623 6.53223 55.2744 6.91602 55.2744 7.32031H57.7178C57.7178 7.15039 57.7412 6.99512 57.7881 6.85449C57.8408 6.71387 57.9199 6.59375 58.0254 6.49414C58.1426 6.38281 58.2949 6.29785 58.4824 6.23926C58.6699 6.1748 58.8926 6.14258 59.1504 6.14258C59.4434 6.14258 59.6982 6.18066 59.915 6.25684C60.1377 6.32715 60.3223 6.42969 60.4688 6.56445C60.6094 6.69336 60.7148 6.84863 60.7852 7.03027C60.8555 7.20605 60.8906 7.40527 60.8906 7.62793V8.19043H59.5283C58.8252 8.19043 58.2012 8.25488 57.6562 8.38379C57.1172 8.50684 56.6631 8.68848 56.2939 8.92871C55.8838 9.19238 55.5762 9.5293 55.3711 9.93945C55.166 10.3438 55.0635 10.8096 55.0635 11.3369C55.0635 11.7471 55.1455 12.1279 55.3096 12.4795C55.4736 12.8252 55.7021 13.124 55.9951 13.376C56.2881 13.6279 56.6367 13.8242 57.041 13.9648C57.4512 14.1055 57.8994 14.1758 58.3857 14.1758C58.6846 14.1758 58.9629 14.1465 59.2207 14.0879C59.4785 14.0352 59.7158 13.959 59.9326 13.8594C60.1436 13.7656 60.3369 13.6543 60.5127 13.5254C60.6885 13.3965 60.8438 13.2588 60.9785 13.1123C61.0078 13.2822 61.043 13.4434 61.084 13.5957C61.125 13.748 61.1748 13.8828 61.2334 14ZM58.9043 12.2861C58.6758 12.2861 58.4736 12.2598 58.2979 12.207C58.1279 12.1484 57.9844 12.0723 57.8672 11.9785C57.75 11.8789 57.6592 11.7588 57.5947 11.6182C57.5361 11.4717 57.5068 11.3135 57.5068 11.1436C57.5068 10.9268 57.5479 10.7275 57.6299 10.5459C57.7119 10.3584 57.8379 10.1973 58.0078 10.0625C58.1777 9.93359 58.3975 9.83398 58.667 9.76367C58.9365 9.6875 59.2617 9.64941 59.6426 9.64941H60.8906V11.2842C60.8203 11.4072 60.7236 11.5303 60.6006 11.6533C60.4775 11.7705 60.3311 11.876 60.1611 11.9697C59.9912 12.0635 59.8008 12.1396 59.5898 12.1982C59.3789 12.2568 59.1504 12.2861 58.9043 12.2861ZM70.3125 12.2246C69.9199 12.2246 69.5947 12.1455 69.3369 11.9873C69.085 11.8291 68.8857 11.6182 68.7393 11.3545C68.5869 11.0967 68.4814 10.7979 68.4229 10.458C68.3643 10.1123 68.335 9.75488 68.335 9.38574V9.12207C68.335 8.75879 68.3643 8.40723 68.4229 8.06738C68.4873 7.72754 68.5957 7.42578 68.748 7.16211C68.8945 6.89844 69.0938 6.6875 69.3457 6.5293C69.5977 6.37109 69.917 6.29199 70.3037 6.29199C70.5674 6.29199 70.8105 6.33887 71.0332 6.43262C71.2559 6.52051 71.4463 6.64062 71.6045 6.79297C71.7627 6.94531 71.8828 7.12695 71.9648 7.33789C72.0469 7.54883 72.082 7.77148 72.0703 8.00586H74.373C74.3848 7.44336 74.291 6.93652 74.0918 6.48535C73.8926 6.02832 73.6143 5.63867 73.2568 5.31641C72.8936 5 72.4629 4.75391 71.9648 4.57812C71.4668 4.40234 70.9248 4.31445 70.3389 4.31445C69.6064 4.31445 68.9619 4.44043 68.4053 4.69238C67.8545 4.94434 67.3916 5.28711 67.0166 5.7207C66.6416 6.1543 66.3604 6.66406 66.1729 7.25C65.9854 7.83008 65.8916 8.4541 65.8916 9.12207V9.38574C65.8916 10.0537 65.9854 10.6807 66.1729 11.2666C66.3662 11.8467 66.6504 12.3535 67.0254 12.7871C67.3945 13.2207 67.8574 13.5635 68.4141 13.8154C68.9707 14.0615 69.6182 14.1846 70.3564 14.1846C70.9014 14.1846 71.417 14.0996 71.9033 13.9297C72.3955 13.7539 72.8262 13.5137 73.1953 13.209C73.5645 12.9043 73.8545 12.541 74.0654 12.1191C74.2822 11.6973 74.3848 11.2402 74.373 10.748H72.0703C72.082 10.9707 72.041 11.1729 71.9473 11.3545C71.8594 11.5361 71.7334 11.6914 71.5693 11.8203C71.4053 11.9492 71.2148 12.0488 70.998 12.1191C70.7812 12.1895 70.5527 12.2246 70.3125 12.2246ZM80.4902 10.0713L83.1885 14H86.1855L82.0986 8.4541L85.6846 4.49023H82.749L80.1211 7.37305L79.3828 8.2168V0.5H76.9395V14H79.3828V11.0996L80.4902 10.0713Z" fill="white"/>
</svg>
