<svg width="250" height="40" viewBox="0 0 250 40" fill="none" xmlns="http://www.w3.org/2000/svg">
<path d="M5.7535 39.1333H12.2198L15.3257 19.3298L15.6057 17.4654L15.8858 19.3298L19.1189 39.1333H25.5853L30.7278 2.44894H24.1596L21.6393 23.0083L21.4611 24.5452L21.2319 23.0335L18.1261 2.44894H13.009L10.0813 22.8823L9.85223 24.3941L9.67401 22.9579L7.20458 2.44894H0.661896L5.7535 39.1333ZM36.7868 11.872V17.5913H44.6277V33.4393H36.7868V39.1333H59.2406V33.4393H51.7816V11.872H36.7868ZM44.1185 4.89289C44.1185 5.43039 44.2121 5.93432 44.3986 6.40463C44.6023 6.85814 44.8824 7.24448 45.2389 7.56359C45.5952 7.89954 46.0195 8.15989 46.5117 8.34467C47.0209 8.52943 47.5811 8.62182 48.1919 8.62182C49.4479 8.62182 50.4408 8.27748 51.1705 7.58879C51.9172 6.88333 52.2906 5.98469 52.2906 4.89289C52.2906 3.80109 51.9172 2.91088 51.1705 2.22219C50.4408 1.51673 49.4479 1.164 48.1919 1.164C47.5811 1.164 47.0209 1.25638 46.5117 1.44114C46.0195 1.62591 45.5952 1.87788 45.2389 2.19699C44.8824 2.53294 44.6023 2.93608 44.3986 3.40638C44.2121 3.85989 44.1185 4.35539 44.1185 4.89289ZM67.6927 0.433333V6.15268H75.9412V33.4393H67.6927V39.1333H90.9868V33.4393H83.0948V0.433333H67.6927ZM96.7912 25.3011V25.8302C96.7912 27.8123 97.0374 29.6515 97.5295 31.348C98.0216 33.0276 98.7345 34.4807 99.668 35.7068C100.584 36.9329 101.705 37.8987 103.028 38.6041C104.369 39.293 105.88 39.6373 107.56 39.6373C109.104 39.6373 110.462 39.3432 111.633 38.7555C112.804 38.1676 113.823 37.3445 114.688 36.2862L115.045 39.1333H121.434V0.433333H114.332V14.3159C113.483 13.3753 112.507 12.6531 111.404 12.1491C110.318 11.6284 109.053 11.3681 107.611 11.3681C105.897 11.3681 104.369 11.704 103.028 12.3759C101.705 13.0478 100.576 13.9968 99.6425 15.223C98.709 16.4491 97.9961 17.9189 97.504 19.6322C97.0287 21.3454 96.7912 23.2351 96.7912 25.3011ZM103.869 25.8302V25.3011C103.869 24.1589 103.97 23.0923 104.174 22.1013C104.378 21.0935 104.7 20.2116 105.141 19.4558C105.583 18.7167 106.151 18.1372 106.847 17.7173C107.56 17.2806 108.417 17.0622 109.418 17.0622C110.623 17.0622 111.625 17.3226 112.422 17.8433C113.22 18.3472 113.856 19.0611 114.332 19.9849V31.0204C113.856 31.9274 113.212 32.6415 112.397 33.1621C111.599 33.6827 110.589 33.9432 109.367 33.9432C108.366 33.9432 107.517 33.7331 106.822 33.3131C106.126 32.8932 105.557 32.3138 105.116 31.5748C104.675 30.8524 104.352 30.0041 104.149 29.0301C103.962 28.039 103.869 26.9724 103.869 25.8302ZM135.92 15.6261V0.433333H128.843V39.1333H135.92V19.4558C136.192 19.1031 136.489 18.7839 136.811 18.4984C137.151 18.2128 137.524 17.9693 137.931 17.7677C138.373 17.5325 138.865 17.3562 139.408 17.2386C139.951 17.121 140.537 17.0622 141.165 17.0622C141.979 17.0622 142.709 17.1714 143.354 17.3898C143.999 17.5913 144.55 17.9105 145.009 18.3472C145.467 18.7839 145.815 19.355 146.053 20.0605C146.307 20.7659 146.434 21.6058 146.434 22.58V39.1333H153.511V22.6304C153.511 20.6316 153.266 18.9267 152.773 17.5157C152.298 16.088 151.628 14.9206 150.762 14.0136C149.897 13.1066 148.861 12.4431 147.656 12.0232C146.451 11.5864 145.127 11.3681 143.685 11.3681C142.7 11.3681 141.767 11.5109 140.885 11.7964C140.002 12.082 139.196 12.4851 138.466 13.0058C137.991 13.3417 137.532 13.7364 137.091 14.19C136.667 14.6267 136.277 15.1054 135.92 15.6261ZM177.366 39.1333H184.545V38.7051C184.189 38.0165 183.917 37.1932 183.73 36.236C183.543 35.2785 183.45 34.0691 183.45 32.6077V20.9171C183.45 19.3382 183.153 17.9525 182.559 16.7599C181.965 15.5505 181.142 14.5511 180.09 13.7616C179.037 12.9722 177.79 12.3759 176.347 11.9728C174.922 11.5697 173.377 11.3681 171.714 11.3681C169.864 11.3681 168.218 11.6032 166.775 12.0736C165.35 12.5271 164.144 13.1486 163.16 13.938C162.159 14.7275 161.395 15.6429 160.869 16.6843C160.36 17.7257 160.105 18.8259 160.105 19.9849H167.183C167.183 19.4978 167.25 19.0527 167.386 18.6495C167.539 18.2464 167.768 17.9021 168.074 17.6165C168.413 17.2974 168.854 17.0538 169.397 16.8859C169.94 16.7011 170.585 16.6087 171.332 16.6087C172.181 16.6087 172.919 16.7179 173.547 16.9363C174.192 17.1378 174.727 17.4318 175.151 17.8181C175.558 18.1876 175.864 18.6327 176.067 19.1534C176.271 19.6573 176.373 20.2284 176.373 20.8667V22.4792H172.427C170.39 22.4792 168.583 22.664 167.004 23.0335C165.443 23.3863 164.128 23.907 163.058 24.5956C161.87 25.3515 160.979 26.3173 160.385 27.4931C159.791 28.6522 159.494 29.9875 159.494 31.4991C159.494 32.675 159.732 33.7666 160.207 34.7746C160.682 35.7656 161.344 36.6221 162.193 37.3445C163.041 38.0666 164.051 38.6294 165.222 39.0324C166.41 39.4358 167.709 39.6373 169.117 39.6373C169.983 39.6373 170.789 39.5533 171.536 39.3853C172.283 39.2342 172.97 39.0158 173.598 38.7303C174.209 38.4614 174.769 38.1423 175.278 37.7728C175.787 37.4033 176.237 37.0086 176.627 36.5886C176.712 37.0756 176.814 37.5377 176.933 37.9743C177.052 38.4109 177.196 38.7974 177.366 39.1333ZM170.619 34.2202C169.957 34.2202 169.372 34.1448 168.863 33.9934C168.37 33.8254 167.955 33.6073 167.615 33.3384C167.276 33.0528 167.013 32.7086 166.826 32.3055C166.656 31.8855 166.571 31.432 166.571 30.945C166.571 30.3235 166.69 29.7522 166.928 29.2316C167.165 28.6941 167.53 28.2323 168.023 27.8458C168.515 27.4763 169.151 27.1907 169.932 26.9892C170.713 26.7708 171.655 26.6616 172.758 26.6616H176.373V31.348C176.169 31.7006 175.889 32.0535 175.533 32.4061C175.176 32.7421 174.752 33.0445 174.26 33.3131C173.768 33.582 173.216 33.8002 172.605 33.9682C171.994 34.1362 171.332 34.2202 170.619 34.2202ZM203.664 34.0439C202.527 34.0439 201.585 33.8171 200.838 33.3636C200.108 32.9101 199.531 32.3055 199.107 31.5496C198.666 30.8105 198.36 29.954 198.19 28.9796C198.021 27.9886 197.936 26.964 197.936 25.9058V25.1499C197.936 24.1085 198.021 23.1007 198.19 22.1265C198.377 21.1523 198.691 20.2872 199.132 19.5314C199.556 18.7755 200.134 18.1708 200.863 17.7173C201.593 17.2638 202.518 17.037 203.638 17.037C204.402 17.037 205.106 17.1714 205.751 17.4402C206.396 17.6921 206.948 18.0364 207.406 18.4732C207.864 18.9099 208.212 19.4306 208.45 20.0353C208.688 20.64 208.789 21.2782 208.755 21.9501H215.425C215.459 20.3376 215.188 18.8847 214.611 17.5913C214.034 16.2812 213.228 15.1642 212.192 14.2404C211.14 13.3333 209.893 12.6279 208.45 12.1239C207.007 11.62 205.437 11.3681 203.74 11.3681C201.619 11.3681 199.752 11.7292 198.139 12.4515C196.544 13.1738 195.203 14.1564 194.117 15.3993C193.031 16.6423 192.216 18.1036 191.673 19.7833C191.13 21.4462 190.858 23.2351 190.858 25.1499V25.9058C190.858 27.8206 191.13 29.618 191.673 31.2976C192.233 32.9605 193.056 34.4134 194.143 35.6564C195.212 36.8993 196.552 37.882 198.165 38.6041C199.777 39.3096 201.653 39.6625 203.791 39.6625C205.37 39.6625 206.863 39.4189 208.272 38.9318C209.697 38.4278 210.945 37.7393 212.014 36.8658C213.083 35.9923 213.923 34.9509 214.534 33.7414C215.162 32.5323 215.459 31.2219 215.425 29.8109H208.755C208.789 30.4493 208.67 31.029 208.399 31.5496C208.144 32.0702 207.779 32.5153 207.304 32.8849C206.829 33.2544 206.277 33.5399 205.649 33.7414C205.021 33.9432 204.36 34.0439 203.664 34.0439ZM233.144 27.8711L240.96 39.1333H249.641L237.803 23.2351L248.19 11.872H239.687L232.075 20.1361L229.936 22.5548V0.433333H222.859V39.1333H229.936V30.8189L233.144 27.8711Z" fill="white"/>
</svg>
